<?xml version="1.0" standalone="no"?>
<!DOCTYPE svg PUBLIC "-//W3C//DTD SVG 20010904//EN"
 "http://www.w3.org/TR/2001/REC-SVG-20010904/DTD/svg10.dtd">
<svg version="1.0" xmlns="http://www.w3.org/2000/svg"
 width="512.000000pt" height="512.000000pt" viewBox="0 0 512.000000 512.000000"
 preserveAspectRatio="xMidYMid meet">
<metadata>
Created by potrace 1.16, written by Peter Selinger 2001-2019
</metadata>
<g transform="translate(0.000000,512.000000) scale(0.100000,-0.100000)"
fill="#000000" stroke="none">
<path d="M0 2560 l0 -2560 2560 0 2560 0 0 2560 0 2560 -2560 0 -2560 0 0
-2560z m3159 2347 c0 -21 -1 -21 -9 -2 -12 28 -12 37 0 30 6 -3 10 -16 9 -28z
m-99 19 c0 -2 -9 -6 -20 -9 -11 -3 -18 -1 -14 4 5 9 34 13 34 5z m-102 -35
c10 -6 9 -10 -7 -14 -12 -3 -19 -1 -16 3 3 5 -1 11 -7 13 -9 4 -8 6 2 6 8 0
21 -3 28 -8z m-48 -21 c0 -5 -7 -10 -15 -10 -8 0 -15 5 -15 10 0 6 7 10 15 10
8 0 15 -4 15 -10z m-48 -32 c-8 -8 -9 -4 -5 13 4 13 8 18 11 10 2 -7 -1 -18
-6 -23z m-25 -4 c-3 -3 -12 -4 -19 -1 -8 3 -5 6 6 6 11 1 17 -2 13 -5z m-65
-31 c-6 -3 -9 -10 -6 -16 4 -7 1 -7 -7 1 -12 11 -12 14 1 22 8 5 17 6 20 3 3
-3 -1 -8 -8 -10z m-256 -219 c-10 -14 -20 -23 -23 -21 -6 6 30 57 36 51 2 -2
-4 -15 -13 -30z m-55 -67 c-10 -9 -11 -8 -5 6 3 10 9 15 12 12 3 -3 0 -11 -7
-18z m-54 -109 c-3 -8 -6 -5 -6 6 -1 11 2 17 5 13 3 -3 4 -12 1 -19z m-839
-49 c-12 -7 -24 -7 -35 0 -15 9 -12 10 17 10 29 0 32 -1 18 -10z m822 -14 c0
-14 -4 -25 -10 -25 -5 0 -10 11 -10 25 0 14 5 25 10 25 6 0 10 -11 10 -25z
m-662 3 c-7 -20 -48 -23 -48 -4 0 11 9 16 26 16 16 0 24 -5 22 -12z m32 -18
c-8 -5 -19 -10 -25 -10 -5 0 -3 5 5 10 8 5 20 10 25 10 6 0 3 -5 -5 -10z
m-293 -62 c-2 -13 -4 -5 -4 17 -1 22 1 32 4 23 2 -10 2 -28 0 -40z m910 0 c-3
-7 -5 -2 -5 12 0 14 2 19 5 13 2 -7 2 -19 0 -25z m-892 -103 c4 -27 12 -53 18
-57 9 -6 9 -8 0 -8 -7 0 -10 -7 -6 -17 4 -10 2 -14 -4 -10 -6 4 -13 26 -16 49
-3 24 -9 61 -12 83 -4 27 -3 35 3 25 5 -8 13 -37 17 -65z m905 30 c4 3 6 -5 2
-17 -5 -21 -6 -21 -13 -2 -4 10 -7 30 -7 44 1 23 1 23 5 -3 2 -15 8 -25 13
-22z m-303 16 c0 -11 -5 -17 -9 -15 -11 7 -10 34 1 34 6 0 9 -9 8 -19z m623
-1 c0 -5 -5 -10 -11 -10 -5 0 -7 5 -4 10 3 6 8 10 11 10 2 0 4 -4 4 -10z
m-490 -100 c0 -5 -6 -12 -12 -16 -7 -4 -10 -4 -6 1 4 4 3 14 -4 22 -8 11 -7
12 6 7 9 -3 16 -10 16 -14z m203 -83 c-7 -11 -23 12 -23 32 0 11 4 9 14 -4 8
-11 12 -24 9 -28z m-891 -48 c7 -4 7 -13 1 -24 -13 -23 -20 -11 -27 50 -5 47
-5 48 5 15 6 -19 15 -38 21 -41z m788 -39 c0 -5 -5 -10 -11 -10 -5 0 -7 5 -4
10 3 6 8 10 11 10 2 0 4 -4 4 -10z m-760 -35 c0 -23 0 -22 15 -59 18 -41 18
-46 6 -46 -12 0 -34 67 -26 80 3 5 -1 10 -9 10 -9 0 -16 7 -16 15 0 8 7 15 15
15 8 0 15 -7 15 -15z m1933 -12 c-7 -2 -21 -2 -30 0 -10 3 -4 5 12 5 17 0 24
-2 18 -5z m-240 -20 c-7 -2 -19 -2 -25 0 -7 3 -2 5 12 5 14 0 19 -2 13 -5z
m-66 -9 c-3 -3 -12 -4 -19 -1 -8 3 -5 6 6 6 11 1 17 -2 13 -5z m-42 -14 c3 -6
-1 -7 -9 -4 -18 7 -21 14 -7 14 6 0 13 -4 16 -10z m-45 -16 c0 -8 -4 -12 -10
-9 -5 3 -10 10 -10 16 0 5 5 9 10 9 6 0 10 -7 10 -16z m-390 -10 c0 -2 -7 -4
-15 -4 -8 0 -15 4 -15 10 0 5 7 7 15 4 8 -4 15 -8 15 -10z m360 2 c0 -2 -9 -6
-20 -9 -11 -3 -20 -1 -20 4 0 5 9 9 20 9 11 0 20 -2 20 -4z m-63 -22 c-3 -3
-12 -4 -19 -1 -8 3 -5 6 6 6 11 1 17 -2 13 -5z m-559 -61 c-5 -25 -28 -28 -28
-4 0 12 6 21 16 21 9 0 14 -7 12 -17z m-781 -44 c25 -29 30 -49 12 -49 -6 0
-9 7 -6 14 4 10 1 13 -8 10 -17 -7 -45 18 -45 40 0 22 20 16 47 -15z m1173 23
c0 -13 -23 -32 -37 -32 -11 0 -11 5 -3 20 10 19 40 28 40 12z m-433 -74 c-3
-8 -6 -5 -6 6 -1 11 2 17 5 13 3 -3 4 -12 1 -19z m-5 -53 c-2 -19 -6 -35 -8
-35 -2 0 -4 16 -4 35 0 19 4 35 8 35 4 0 6 -16 4 -35z m-641 8 c13 -16 12 -17
-3 -4 -17 13 -22 21 -14 21 2 0 10 -8 17 -17z m114 -83 c-3 -5 -1 -10 6 -10 7
0 10 -3 6 -6 -3 -4 -14 -3 -24 0 -15 6 -15 8 -3 16 19 12 23 12 15 0z m80 -30
c-3 -5 -12 -10 -18 -10 -7 0 -6 4 3 10 19 12 23 12 15 0z m35 -10 c-8 -5 -19
-10 -25 -10 -5 0 -3 5 5 10 8 5 20 10 25 10 6 0 3 -5 -5 -10z m40 -15 c0 -8
-7 -15 -15 -15 -16 0 -20 12 -8 23 11 12 23 8 23 -8z m597 -7 c-3 -8 -6 -5 -6
6 -1 11 2 17 5 13 3 -3 4 -12 1 -19z m790 -20 c-3 -8 -6 -5 -6 6 -1 11 2 17 5
13 3 -3 4 -12 1 -19z m-1242 2 c-11 -5 -29 -8 -40 -8 -16 0 -15 2 5 8 34 11
60 11 35 0z m-1748 -86 c-3 -3 -12 -4 -19 -1 -8 3 -5 6 6 6 11 1 17 -2 13 -5z
m4216 -1 c3 -5 -10 -8 -29 -9 -21 0 -30 3 -22 8 16 10 45 10 51 1z m57 -3 c-8
-5 -22 -9 -30 -9 -10 0 -8 3 5 9 27 12 43 12 25 0z m-2417 -20 c-3 -12 -8 -19
-11 -16 -5 6 5 36 12 36 2 0 2 -9 -1 -20z m2480 -3 c3 -8 -1 -14 -8 -14 -7 0
-11 6 -8 14 3 7 6 13 8 13 2 0 5 -6 8 -13z m-2225 -28 c-3 -8 -7 -3 -11 10 -4
17 -3 21 5 13 5 -5 8 -16 6 -23z m2008 -11 c-9 -12 -16 -19 -16 -15 0 11 24
47 28 42 2 -2 -3 -14 -12 -27z m-4215 -44 c-5 -16 -10 -21 -10 -12 -1 18 10
51 15 45 2 -1 -1 -16 -5 -33z m4192 -14 c-3 -12 -8 -19 -11 -16 -5 6 5 36 12
36 2 0 2 -9 -1 -20z m274 -2 c-3 -8 -6 -5 -6 6 -1 11 2 17 5 13 3 -3 4 -12 1
-19z m-2190 -20 c-3 -7 -5 -2 -5 12 0 14 2 19 5 13 2 -7 2 -19 0 -25z m-280
-10 c-3 -7 -5 -2 -5 12 0 14 2 19 5 13 2 -7 2 -19 0 -25z m2180 -40 c-3 -7 -5
-2 -5 12 0 14 2 19 5 13 2 -7 2 -19 0 -25z m-2160 -20 c-3 -8 -6 -5 -6 6 -1
11 2 17 5 13 3 -3 4 -12 1 -19z m198 -8 c3 -5 1 -10 -4 -10 -6 0 -11 5 -11 10
0 6 2 10 4 10 3 0 8 -4 11 -10z m-2228 -32 c-3 -7 -5 -2 -5 12 0 14 2 19 5 13
2 -7 2 -19 0 -25z m4187 -35 c-3 -32 -8 -60 -10 -62 -6 -7 -4 72 2 97 11 38
14 24 8 -35z m-1547 31 c-3 -3 -12 -4 -19 -1 -8 3 -5 6 6 6 11 1 17 -2 13 -5z
m-2327 -34 c0 -11 -4 -20 -9 -20 -5 0 -7 9 -4 20 3 11 7 20 9 20 2 0 4 -9 4
-20z m1741 -12 c-3 -21 -6 -26 -9 -15 -3 17 3 47 11 47 2 0 1 -15 -2 -32z
m-2061 -35 c0 -33 -3 -44 -11 -36 -9 9 -3 83 7 83 2 0 4 -21 4 -47z m352 -15
c-9 -9 -12 -7 -12 12 0 19 3 21 12 12 9 -9 9 -15 0 -24z m115 16 c-3 -3 -12
-4 -19 -1 -8 3 -5 6 6 6 11 1 17 -2 13 -5z m4040 -36 c-3 -8 -6 -5 -6 6 -1 11
2 17 5 13 3 -3 4 -12 1 -19z m-4150 -50 c-3 -7 -5 -2 -5 12 0 14 2 19 5 13 2
-7 2 -19 0 -25z m3640 0 c-3 -7 -5 -2 -5 12 0 14 2 19 5 13 2 -7 2 -19 0 -25z
m190 -35 c-2 -16 -4 -5 -4 22 0 28 2 40 4 28 2 -13 2 -35 0 -50z m-3830 -15
c-3 -7 -5 -2 -5 12 0 14 2 19 5 13 2 -7 2 -19 0 -25z m-370 -20 c-3 -7 -5 -2
-5 12 0 14 2 19 5 13 2 -7 2 -19 0 -25z m2090 -20 c-3 -8 -6 -5 -6 6 -1 11 2
17 5 13 3 -3 4 -12 1 -19z m1890 -10 c-3 -8 -6 -5 -6 6 -1 11 2 17 5 13 3 -3
4 -12 1 -19z m-3990 -80 c-2 -18 -4 -6 -4 27 0 33 2 48 4 33 2 -15 2 -42 0
-60z m2291 57 c-3 -3 -9 2 -12 12 -6 14 -5 15 5 6 7 -7 10 -15 7 -18z m1925 5
c3 -11 1 -18 -4 -14 -5 3 -9 12 -9 20 0 20 7 17 13 -6z m-3853 -20 c0 -5 -4
-10 -10 -10 -5 0 -10 5 -10 10 0 6 5 10 10 10 6 0 10 -4 10 -10z m3617 -22
c-3 -7 -5 -2 -5 12 0 14 2 19 5 13 2 -7 2 -19 0 -25z m565 -40 c-8 -8 -9 -4
-5 13 4 13 8 18 11 10 2 -7 -1 -18 -6 -23z m-3667 -25 c-2 -21 -4 -41 -4 -45
-1 -5 -5 -8 -11 -8 -5 0 -10 20 -10 45 0 33 4 45 15 45 10 0 13 -10 10 -37z
m3092 -20 c-3 -10 -5 -4 -5 12 0 17 2 24 5 18 2 -7 2 -21 0 -30z m234 27 c1
-5 2 -17 2 -25 0 -28 -3 -35 -13 -35 -5 0 -10 16 -10 35 0 19 5 35 10 35 6 0
11 -4 11 -10z m-3814 -57 c-3 -10 -5 -4 -5 12 0 17 2 24 5 18 2 -7 2 -21 0
-30z m-17 -23 c0 -5 -5 -10 -11 -10 -5 0 -7 5 -4 10 3 6 8 10 11 10 2 0 4 -4
4 -10z m3830 0 c0 -5 -4 -10 -10 -10 -5 0 -10 5 -10 10 0 6 5 10 10 10 6 0 10
-4 10 -10z m-3813 -52 c-3 -7 -5 -2 -5 12 0 14 2 19 5 13 2 -7 2 -19 0 -25z
m3570 0 c-3 -7 -5 -2 -5 12 0 14 2 19 5 13 2 -7 2 -19 0 -25z m232 18 c9 -10
8 -15 -4 -20 -10 -4 -15 1 -15 14 0 24 4 25 19 6z m362 -9 c-10 -9 -11 -8 -5
6 3 10 9 15 12 12 3 -3 0 -11 -7 -18z m-4564 -9 c-3 -8 -6 -5 -6 6 -1 11 2 17
5 13 3 -3 4 -12 1 -19z m890 1 c6 -6 9 -19 6 -29 -7 -26 -33 -13 -33 16 0 26
10 30 27 13z m-277 -49 c0 -5 -5 -10 -11 -10 -5 0 -7 5 -4 10 3 6 8 10 11 10
2 0 4 -4 4 -10z m3352 -45 c-6 -34 -12 -32 -12 6 0 16 4 28 9 25 4 -3 6 -17 3
-31z m-3581 2 c-10 -9 -11 -8 -5 6 3 10 9 15 12 12 3 -3 0 -11 -7 -18z m538
-80 c1 -10 5 -16 9 -13 10 6 9 -30 0 -40 -9 -8 -38 93 -37 125 1 22 3 19 14
-14 8 -22 14 -48 14 -58z m3671 44 c0 -5 -7 -11 -15 -15 -15 -5 -20 5 -8 17 9
10 23 9 23 -2z m-4596 -27 c10 -25 7 -34 -9 -34 -9 0 -15 9 -15 25 0 28 15 34
24 9z m423 -36 c-2 -13 -4 -5 -4 17 -1 22 1 32 4 23 2 -10 2 -28 0 -40z m3533
32 c0 -11 -4 -20 -10 -20 -5 0 -10 9 -10 20 0 11 5 20 10 20 6 0 10 -9 10 -20z
m0 -40 c0 -5 -4 -10 -10 -10 -5 0 -7 -7 -4 -15 4 -8 2 -15 -3 -15 -5 0 -10 11
-11 25 -1 16 3 25 13 25 8 0 15 -4 15 -10z m217 -22 c-3 -7 -5 -2 -5 12 0 14
2 19 5 13 2 -7 2 -19 0 -25z m-4182 -73 c0 -38 -4 -60 -12 -62 -10 -4 -13 13
-13 62 0 48 3 66 12 63 8 -3 13 -26 13 -63z m442 33 c-3 -8 -6 -5 -6 6 -1 11
2 17 5 13 3 -3 4 -12 1 -19z m533 -24 c22 -51 23 -54 12 -54 -8 0 -42 73 -42
90 0 22 12 8 30 -36z m3258 -41 c2 -8 -5 -13 -17 -13 -12 0 -21 6 -21 16 0 18
31 15 38 -3z m-3865 -17 c4 -10 0 -14 -12 -13 -11 1 -17 7 -14 14 7 17 20 17
26 -1z m3620 -5 c4 10 6 9 6 -3 1 -13 -7 -18 -24 -18 -22 0 -24 2 -13 14 8 9
15 10 19 4 4 -6 9 -5 12 3z m-2943 -62 c7 -22 5 -29 -6 -29 -8 0 -14 7 -14 15
0 8 -4 15 -9 15 -14 0 -21 44 -8 52 13 8 24 -8 37 -53z m-1036 -23 c-3 -8 -1
-23 4 -33 14 -27 4 -47 -14 -29 -19 20 -19 76 1 76 8 0 12 -6 9 -14z m710 -32
c3 -8 2 -12 -4 -9 -6 3 -10 10 -10 16 0 14 7 11 14 -7z m-397 -31 c-3 -10 -5
-4 -5 12 0 17 2 24 5 18 2 -7 2 -21 0 -30z m761 19 c16 -17 30 -72 17 -72 -3
0 -11 14 -16 30 -6 17 -15 30 -20 30 -5 0 -9 7 -9 15 0 19 6 19 28 -3z m2802
-15 c0 -2 -10 -12 -22 -23 l-23 -19 19 23 c18 21 26 27 26 19z m407 -19 c-3
-8 -6 -5 -6 6 -1 11 2 17 5 13 3 -3 4 -12 1 -19z m-457 -18 c0 -5 -4 -10 -10
-10 -5 0 -10 5 -10 10 0 6 5 10 10 10 6 0 10 -4 10 -10z m-3807 -36 c-8 -21
-23 -17 -23 6 0 13 5 18 14 14 8 -3 12 -12 9 -20z m1125 -2 c2 -7 -6 -12 -17
-12 -12 0 -21 6 -21 14 0 17 32 15 38 -2z m-1124 -37 c3 -8 1 -15 -4 -15 -6 0
-10 7 -10 15 0 8 2 15 4 15 2 0 6 -7 10 -15z m3419 8 c-7 -2 -19 -2 -25 0 -7
3 -2 5 12 5 14 0 19 -2 13 -5z m-3053 -13 c0 -5 -8 -10 -17 -10 -15 0 -16 2
-3 10 19 12 20 12 20 0z m790 -9 c15 -29 12 -33 -10 -14 -21 19 -26 33 -10 33
5 0 14 -9 20 -19z m-1140 -58 c0 -7 -4 -13 -10 -13 -5 0 -10 12 -10 28 0 21 2
24 10 12 5 -8 10 -21 10 -27z m4185 27 c3 -5 -1 -10 -9 -10 -9 0 -16 5 -16 10
0 6 4 10 9 10 6 0 13 -4 16 -10z m-3795 -44 c0 -2 -9 -2 -20 1 -11 3 -20 9
-20 15 0 5 9 4 20 -2 11 -6 20 -12 20 -14z m824 9 c3 -8 1 -15 -4 -15 -6 0
-10 6 -10 13 0 8 -4 7 -10 -3 -8 -13 -10 -12 -10 3 0 21 26 23 34 2z m76 -86
c0 -6 -4 -7 -10 -4 -5 3 -10 11 -10 16 0 6 5 7 10 4 6 -3 10 -11 10 -16z
m1927 -1 c-3 -8 -6 -5 -6 6 -1 11 2 17 5 13 3 -3 4 -12 1 -19z m-3179 -44 c4
2 7 -6 7 -19 0 -18 -3 -21 -12 -13 -7 6 -12 25 -12 42 1 24 3 26 6 8 2 -12 7
-20 11 -18z m429 -20 c-3 -3 -12 -4 -19 -1 -8 3 -5 6 6 6 11 1 17 -2 13 -5z
m2663 -14 c0 -5 -4 -10 -10 -10 -5 0 -10 5 -10 10 0 6 5 10 10 10 6 0 10 -4
10 -10z m915 0 c3 -6 -1 -7 -9 -4 -18 7 -21 14 -7 14 6 0 13 -4 16 -10z m-585
-24 c0 -3 -4 -8 -10 -11 -5 -3 -10 -1 -10 4 0 6 5 11 10 11 6 0 10 -2 10 -4z
m-450 -47 c0 -5 -4 -9 -10 -9 -5 0 -10 7 -10 16 0 8 5 12 10 9 6 -3 10 -10 10
-16z m410 11 c0 -5 -7 -10 -15 -10 -8 0 -15 5 -15 10 0 6 7 10 15 10 8 0 15
-4 15 -10z m-43 -32 c-3 -7 -5 -2 -5 12 0 14 2 19 5 13 2 -7 2 -19 0 -25z
m-3297 7 c0 -8 -4 -15 -10 -15 -5 0 -10 7 -10 15 0 8 5 15 10 15 6 0 10 -7 10
-15z m1464 0 c3 -8 1 -15 -4 -15 -6 0 -10 7 -10 15 0 8 2 15 4 15 2 0 6 -7 10
-15z m-964 -6 c0 -5 5 -7 12 -3 7 4 8 3 4 -4 -10 -16 -23 -15 -30 3 -3 8 -1
15 4 15 6 0 10 -5 10 -11z m2755 -19 c3 -6 -1 -7 -9 -4 -18 7 -21 14 -7 14 6
0 13 -4 16 -10z m-2770 -18 c-3 -3 -11 0 -18 7 -9 10 -8 11 6 5 10 -3 15 -9
12 -12z m-460 -11 c3 -5 1 -12 -5 -16 -5 -3 -10 1 -10 9 0 18 6 21 15 7z
m1645 -31 c-8 -5 -19 -10 -25 -10 -5 0 -3 5 5 10 8 5 20 10 25 10 6 0 3 -5 -5
-10z m2647 -22 c-3 -8 -6 -5 -6 6 -1 11 2 17 5 13 3 -3 4 -12 1 -19z m-2983
-4 c3 -8 2 -12 -4 -9 -6 3 -10 10 -10 16 0 14 7 11 14 -7z m406 -4 c0 -5 -5
-10 -11 -10 -5 0 -7 5 -4 10 3 6 8 10 11 10 2 0 4 -4 4 -10z m-1678 -24 c7 4
8 2 4 -5 -9 -13 -26 -5 -25 12 0 9 2 8 6 -1 2 -6 10 -9 15 -6z m1765 -1 c0 -8
-6 -15 -14 -15 -17 0 -17 17 0 23 6 3 12 6 13 6 0 1 1 -6 1 -14z m717 9 c26
-10 18 -24 -11 -23 -16 0 -22 3 -15 6 6 2 10 9 6 14 -6 11 -2 11 20 3z m1239
-7 c3 -8 -1 -14 -8 -14 -7 0 -11 6 -8 14 3 7 6 13 8 13 2 0 5 -6 8 -13z
m-1575 -34 c-15 -2 -42 -2 -60 0 -18 2 -6 4 27 4 33 0 48 -2 33 -4z m-145 -10
c-7 -2 -19 -2 -25 0 -7 3 -2 5 12 5 14 0 19 -2 13 -5z m212 -3 c4 -6 -6 -10
-22 -10 -22 0 -25 2 -13 10 19 12 27 12 35 0z m68 3 c-7 -2 -19 -2 -25 0 -7 3
-2 5 12 5 14 0 19 -2 13 -5z m-1703 -13 c0 -5 8 -10 17 -10 13 0 14 -3 6 -11
-9 -9 -16 -8 -27 4 -18 18 -20 27 -6 27 6 0 10 -4 10 -10z m-563 -22 c-3 -8
-6 -5 -6 6 -1 11 2 17 5 13 3 -3 4 -12 1 -19z m49 -61 c14 -8 44 -69 44 -90 0
-5 -9 2 -21 17 -11 14 -18 30 -14 36 3 5 0 7 -8 4 -18 -6 -43 49 -31 68 6 10
10 8 12 -7 2 -11 11 -24 18 -28z m2490 -103 c-4 -9 -9 -15 -11 -12 -3 3 -3 13
1 22 4 9 9 15 11 12 3 -3 3 -13 -1 -22z m-2420 -21 c-10 -10 -19 5 -10 18 6
11 8 11 12 0 2 -7 1 -15 -2 -18z m584 12 c0 -8 -2 -15 -4 -15 -2 0 -6 7 -10
15 -3 8 -1 15 4 15 6 0 10 -7 10 -15z m1018 -48 c6 3 12 3 12 0 0 -3 -6 -7
-14 -10 -8 -3 -28 11 -47 31 l-34 37 35 -31 c19 -17 41 -29 48 -27z m703 -64
c-8 -15 -10 -15 -11 -2 0 17 10 32 18 25 2 -3 -1 -13 -7 -23z m-54 -79 c-3 -3
-12 -4 -19 -1 -8 3 -5 6 6 6 11 1 17 -2 13 -5z m0 -20 c-3 -3 -12 -4 -19 -1
-8 3 -5 6 6 6 11 1 17 -2 13 -5z m-1954 -57 c-4 -6 0 -8 10 -4 10 3 17 2 17
-3 0 -17 -20 -21 -35 -6 -19 18 -19 23 0 23 8 0 11 -5 8 -10z m98 -70 c-13
-13 -26 -3 -16 12 3 6 11 8 17 5 6 -4 6 -10 -1 -17z m1760 -54 c-12 -20 -14
-14 -5 12 4 9 9 14 11 11 3 -2 0 -13 -6 -23z m1323 -18 c3 -8 1 -15 -4 -15 -6
0 -10 7 -10 15 0 8 2 15 4 15 2 0 6 -7 10 -15z m-2969 -15 c3 -5 1 -10 -4 -10
-6 0 -11 5 -11 10 0 6 2 10 4 10 3 0 8 -4 11 -10z m1632 -22 c-3 -8 -6 -5 -6
6 -1 11 2 17 5 13 3 -3 4 -12 1 -19z m-336 -11 c-10 -9 -11 -8 -5 6 3 10 9 15
12 12 3 -3 0 -11 -7 -18z m1585 -34 c-10 -10 -19 5 -10 18 6 11 8 11 12 0 2
-7 1 -15 -2 -18z m-2746 -28 c-1 -8 22 -31 40 -38 13 -5 13 -5 0 -6 -23 -1
-64 35 -55 48 7 12 18 9 15 -4z m1494 -1 c3 -8 2 -12 -4 -9 -6 3 -10 10 -10
16 0 14 7 11 14 -7z m1123 -60 c-3 -3 -12 -4 -19 -1 -8 3 -5 6 6 6 11 1 17 -2
13 -5z m-2447 -76 c0 -14 -26 -8 -42 10 -8 9 -15 25 -15 35 0 15 5 13 29 -10
15 -15 28 -30 28 -35z m1011 9 c-10 -9 -11 -8 -5 6 3 10 9 15 12 12 3 -3 0
-11 -7 -18z m-961 -52 c7 -8 8 -15 2 -15 -5 0 -15 7 -22 15 -7 8 -8 15 -2 15
5 0 15 -7 22 -15z m1257 -17 c-3 -7 -5 -2 -5 12 0 14 2 19 5 13 2 -7 2 -19 0
-25z m948 -23 c-14 -21 -25 -32 -25 -25 0 12 42 70 48 65 2 -2 -8 -20 -23 -40z
m-1237 -66 c-3 -8 -7 -3 -11 10 -4 17 -3 21 5 13 5 -5 8 -16 6 -23z m289 -51
c-2 -18 -4 -6 -4 27 0 33 2 48 4 33 2 -15 2 -42 0 -60z m-1174 51 c3 -13 1
-19 -6 -16 -15 5 -22 37 -9 37 5 0 12 -9 15 -21z m48 -119 c6 0 7 -4 4 -10
-13 -21 -25 -9 -24 23 1 23 3 26 6 10 2 -13 9 -23 14 -23z m-4 -52 c-3 -8 -6
-5 -6 6 -1 11 2 17 5 13 3 -3 4 -12 1 -19z m1140 -20 c-3 -8 -6 -5 -6 6 -1 11
2 17 5 13 3 -3 4 -12 1 -19z m833 -28 c0 -11 -4 -20 -9 -20 -5 0 -7 9 -4 20 3
11 7 20 9 20 2 0 4 -9 4 -20z"/>
<path d="M1350 630 c0 -5 5 -10 11 -10 5 0 7 5 4 10 -3 6 -8 10 -11 10 -2 0
-4 -4 -4 -10z"/>
</g>
</svg>
